<svg width="217" height="76" viewBox="0 0 217 76" fill="none" xmlns="http://www.w3.org/2000/svg">
<g opacity="0.6">
<rect x="0.5" y="57.5" width="31" height="18" stroke="#ECD975"/>
<rect x="32.5" y="0.5" width="31" height="18" stroke="#D48080"/>
<rect x="32.5" y="38.5" width="31" height="18" stroke="#DDDCDC"/>
<rect x="0.5" y="19.5" width="31" height="18" stroke="#80C5D4"/>
</g>
<path d="M4.992 55V54.68L6.304 54.36C7.17867 54.168 7.616 53.6347 7.616 52.76V34.52H4.896C4.10667 34.52 3.54133 34.7333 3.2 35.16C2.85867 35.5653 2.496 36.1307 2.112 36.856L0.96 39.096H0.64L0.8 33.88H19.264L19.392 39.096H19.072L17.92 36.856C17.5573 36.1307 17.2053 35.5653 16.864 35.16C16.5227 34.7333 15.9573 34.52 15.168 34.52H12.448V52.76C12.448 53.6347 12.8853 54.168 13.76 54.36L15.072 54.68V55H4.992ZM19.5463 55V54.68L20.0263 54.552C20.4529 54.424 20.7409 54.232 20.8903 53.976C21.0609 53.72 21.1463 53.3893 21.1463 52.984V42.968C21.1463 42.4987 21.0609 42.1573 20.8903 41.944C20.7409 41.7093 20.4529 41.5493 20.0263 41.464L19.5463 41.336V41.016L25.0503 39.16L25.3703 39.48L25.6583 42.232V42.488C25.9569 41.8907 26.3409 41.3467 26.8103 40.856C27.3009 40.344 27.8343 39.928 28.4103 39.608C29.0076 39.288 29.5943 39.128 30.1703 39.128C30.9809 39.128 31.5996 39.352 32.0263 39.8C32.4529 40.248 32.6663 40.8133 32.6663 41.496C32.6663 42.2213 32.4529 42.7867 32.0263 43.192C31.6209 43.576 31.1303 43.768 30.5543 43.768C29.6583 43.768 28.8689 43.32 28.1863 42.424L28.1223 42.36C27.9089 42.0613 27.6636 41.9013 27.3863 41.88C27.1089 41.8373 26.8529 41.9653 26.6183 42.264C26.4049 42.456 26.2236 42.6907 26.0743 42.968C25.9463 43.224 25.8183 43.5227 25.6903 43.864V52.792C25.6903 53.6453 26.0636 54.1787 26.8103 54.392L27.8343 54.68V55H19.5463ZM41.2033 39.128C42.5899 39.128 43.7739 39.416 44.7553 39.992C45.7366 40.5467 46.4833 41.3147 46.9953 42.296C47.5286 43.256 47.7953 44.3547 47.7953 45.592C47.7953 45.8267 47.7846 46.072 47.7633 46.328C47.7419 46.5627 47.6993 46.776 47.6353 46.968H38.0993C38.1206 49.272 38.5259 50.936 39.3153 51.96C40.1259 52.9627 41.3206 53.464 42.8993 53.464C43.9659 53.464 44.8299 53.2933 45.4913 52.952C46.1526 52.6107 46.7713 52.1093 47.3473 51.448L47.6673 51.736C47.0059 52.9093 46.1206 53.8267 45.0113 54.488C43.9233 55.1493 42.6113 55.48 41.0753 55.48C39.5606 55.48 38.2166 55.16 37.0433 54.52C35.8699 53.8587 34.9526 52.92 34.2913 51.704C33.6299 50.488 33.2993 49.0373 33.2993 47.352C33.2993 45.6027 33.6833 44.12 34.4513 42.904C35.2193 41.6667 36.2006 40.728 37.3953 40.088C38.6113 39.448 39.8806 39.128 41.2033 39.128ZM41.1073 39.768C40.4886 39.768 39.9553 39.96 39.5073 40.344C39.0806 40.7067 38.7393 41.368 38.4833 42.328C38.2486 43.2667 38.1206 44.6 38.0993 46.328H43.5713C43.7846 44.0027 43.6993 42.328 43.3153 41.304C42.9313 40.28 42.1953 39.768 41.1073 39.768ZM57.422 39.128C58.8087 39.128 59.9927 39.416 60.974 39.992C61.9553 40.5467 62.702 41.3147 63.214 42.296C63.7473 43.256 64.014 44.3547 64.014 45.592C64.014 45.8267 64.0033 46.072 63.982 46.328C63.9607 46.5627 63.918 46.776 63.854 46.968H54.318C54.3393 49.272 54.7447 50.936 55.534 51.96C56.3447 52.9627 57.5393 53.464 59.118 53.464C60.1847 53.464 61.0487 53.2933 61.71 52.952C62.3713 52.6107 62.99 52.1093 63.566 51.448L63.886 51.736C63.2247 52.9093 62.3393 53.8267 61.23 54.488C60.142 55.1493 58.83 55.48 57.294 55.48C55.7793 55.48 54.4353 55.16 53.262 54.52C52.0887 53.8587 51.1713 52.92 50.51 51.704C49.8487 50.488 49.518 49.0373 49.518 47.352C49.518 45.6027 49.902 44.12 50.67 42.904C51.438 41.6667 52.4193 40.728 53.614 40.088C54.83 39.448 56.0993 39.128 57.422 39.128ZM57.326 39.768C56.7073 39.768 56.174 39.96 55.726 40.344C55.2993 40.7067 54.958 41.368 54.702 42.328C54.4673 43.2667 54.3393 44.6 54.318 46.328H59.79C60.0033 44.0027 59.918 42.328 59.534 41.304C59.15 40.28 58.414 39.768 57.326 39.768ZM68.1795 55V54.68L69.4915 54.36C70.3662 54.168 70.8035 53.6347 70.8035 52.76V34.52H68.0835C67.2942 34.52 66.7288 34.7333 66.3875 35.16C66.0462 35.5653 65.6835 36.1307 65.2995 36.856L64.1475 39.096H63.8275L63.9875 33.88H82.4515L82.5795 39.096H82.2595L81.1075 36.856C80.7448 36.1307 80.3928 35.5653 80.0515 35.16C79.7102 34.7333 79.1448 34.52 78.3555 34.52H75.6355V52.76C75.6355 53.6347 76.0728 54.168 76.9475 54.36L78.2595 54.68V55H68.1795ZM83.986 55V54.68L84.37 54.552C85.138 54.296 85.522 53.7627 85.522 52.952V35.864C85.522 35.416 85.4473 35.0853 85.298 34.872C85.1487 34.6587 84.8607 34.4987 84.434 34.392L83.954 34.264V33.944L89.586 32.568L90.098 32.856L89.97 37.368V41.368C90.7167 40.7493 91.5167 40.2267 92.37 39.8C93.2447 39.352 94.2047 39.128 95.25 39.128C96.6367 39.128 97.7353 39.5227 98.546 40.312C99.378 41.1013 99.794 42.3173 99.794 43.96V52.984C99.794 53.4107 99.8793 53.752 100.05 54.008C100.221 54.264 100.519 54.456 100.946 54.584L101.202 54.68V55H93.714V54.68L94.098 54.584C94.866 54.328 95.25 53.784 95.25 52.952V42.904C95.25 42.0507 95.1007 41.464 94.802 41.144C94.5247 40.824 94.0233 40.664 93.298 40.664C92.8287 40.664 92.3167 40.76 91.762 40.952C91.2073 41.1227 90.642 41.432 90.066 41.88V53.016C90.066 53.848 90.45 54.3813 91.218 54.616L91.474 54.68V55H83.986ZM110.549 55.48C108.927 55.48 107.519 55.1493 106.325 54.488C105.13 53.8053 104.202 52.8453 103.541 51.608C102.901 50.3707 102.581 48.92 102.581 47.256C102.581 45.592 102.922 44.152 103.605 42.936C104.309 41.72 105.258 40.7813 106.453 40.12C107.669 39.4587 109.034 39.128 110.549 39.128C112.063 39.128 113.418 39.4587 114.613 40.12C115.807 40.76 116.746 41.688 117.429 42.904C118.133 44.12 118.485 45.5707 118.485 47.256C118.485 48.9413 118.154 50.4027 117.493 51.64C116.853 52.856 115.935 53.8053 114.741 54.488C113.567 55.1493 112.17 55.48 110.549 55.48ZM110.549 54.84C111.295 54.84 111.893 54.6267 112.341 54.2C112.789 53.7733 113.109 53.016 113.301 51.928C113.514 50.84 113.621 49.304 113.621 47.32C113.621 45.3147 113.514 43.768 113.301 42.68C113.109 41.592 112.789 40.8347 112.341 40.408C111.893 39.9813 111.295 39.768 110.549 39.768C109.802 39.768 109.194 39.9813 108.725 40.408C108.277 40.8347 107.946 41.592 107.733 42.68C107.541 43.768 107.445 45.3147 107.445 47.32C107.445 49.304 107.541 50.84 107.733 51.928C107.946 53.016 108.277 53.7733 108.725 54.2C109.194 54.6267 109.802 54.84 110.549 54.84ZM125.557 55.48C124.725 55.48 123.957 55.32 123.253 55C122.57 54.68 122.026 54.168 121.621 53.464C121.237 52.7387 121.056 51.7893 121.077 50.616L121.173 42.392C121.173 41.9013 121.088 41.5493 120.917 41.336C120.746 41.1227 120.48 40.9733 120.117 40.888L119.733 40.76V40.44L125.461 39.32L125.781 39.64L125.621 44.184V51.896C125.621 52.5787 125.813 53.08 126.197 53.4C126.602 53.72 127.104 53.88 127.701 53.88C128.298 53.88 128.832 53.7947 129.301 53.624C129.77 53.4533 130.24 53.1973 130.709 52.856L130.837 42.424C130.837 41.9333 130.762 41.592 130.613 41.4C130.464 41.1867 130.186 41.0373 129.781 40.952L129.461 40.856V40.536L135.061 39.32L135.381 39.64L135.285 44.184V52.856C135.285 53.3253 135.349 53.688 135.477 53.944C135.605 54.2 135.882 54.4133 136.309 54.584L136.629 54.68V55L131.029 55.32L130.741 53.432C130.037 54.008 129.269 54.4987 128.437 54.904C127.626 55.288 126.666 55.48 125.557 55.48ZM144.929 49.464C143.457 49.464 142.209 49.2187 141.185 48.728V49.816C141.185 50.4773 141.515 50.872 142.177 51L148.193 52.12C149.195 52.312 150.102 52.568 150.913 52.888C151.723 53.1867 152.374 53.624 152.865 54.2C153.355 54.7547 153.601 55.5227 153.601 56.504C153.601 57.5493 153.259 58.5093 152.577 59.384C151.894 60.28 150.881 60.9947 149.537 61.528C148.214 62.0827 146.561 62.36 144.577 62.36C142.87 62.36 141.515 62.1787 140.513 61.816C139.51 61.4747 138.795 61.0267 138.368 60.472C137.963 59.9173 137.761 59.3307 137.761 58.712C137.761 57.944 138.017 57.1653 138.529 56.376C139.062 55.608 139.713 54.9893 140.481 54.52C139.819 54.264 139.339 53.9333 139.041 53.528C138.742 53.1227 138.593 52.6853 138.593 52.216C138.593 51.7893 138.699 51.3947 138.913 51.032C139.147 50.648 139.425 50.264 139.745 49.88L140.801 48.536C139.243 47.64 138.465 46.232 138.465 44.312C138.465 42.776 139.009 41.528 140.097 40.568C141.206 39.608 142.827 39.128 144.961 39.128C146.049 39.128 146.998 39.256 147.809 39.512C148.641 39.768 149.323 40.1307 149.857 40.6C150.539 40.4933 151.179 40.3227 151.777 40.088C152.395 39.832 152.95 39.4907 153.441 39.064L153.889 39.384V41.016H150.273C151.041 41.8693 151.425 42.968 151.425 44.312C151.425 45.8053 150.87 47.0427 149.761 48.024C148.673 48.984 147.062 49.464 144.929 49.464ZM144.897 48.824C145.75 48.824 146.369 48.472 146.753 47.768C147.158 47.064 147.361 45.8907 147.361 44.248C147.361 42.6053 147.158 41.4533 146.753 40.792C146.369 40.1093 145.771 39.768 144.961 39.768C144.171 39.768 143.574 40.12 143.169 40.824C142.763 41.5067 142.561 42.6693 142.561 44.312C142.561 45.9547 142.742 47.1173 143.105 47.8C143.489 48.4827 144.086 48.824 144.897 48.824ZM140.129 57.688C140.129 58.9467 140.513 59.896 141.281 60.536C142.07 61.176 143.307 61.496 144.993 61.496C146.763 61.496 148.097 61.208 148.993 60.632C149.889 60.056 150.337 59.2453 150.337 58.2C150.337 57.6027 150.113 57.1227 149.665 56.76C149.238 56.3973 148.502 56.12 147.457 55.928L141.665 54.84C141.494 54.7973 141.323 54.7547 141.153 54.712C140.854 55.1387 140.609 55.6187 140.417 56.152C140.225 56.7067 140.129 57.2187 140.129 57.688ZM154.924 55V54.68L155.308 54.552C156.076 54.296 156.46 53.7627 156.46 52.952V35.864C156.46 35.416 156.385 35.0853 156.236 34.872C156.086 34.6587 155.798 34.4987 155.372 34.392L154.892 34.264V33.944L160.524 32.568L161.036 32.856L160.908 37.368V41.368C161.654 40.7493 162.454 40.2267 163.308 39.8C164.182 39.352 165.142 39.128 166.188 39.128C167.574 39.128 168.673 39.5227 169.484 40.312C170.316 41.1013 170.732 42.3173 170.732 43.96V52.984C170.732 53.4107 170.817 53.752 170.988 54.008C171.158 54.264 171.457 54.456 171.884 54.584L172.14 54.68V55H164.652V54.68L165.036 54.584C165.804 54.328 166.188 53.784 166.188 52.952V42.904C166.188 42.0507 166.038 41.464 165.74 41.144C165.462 40.824 164.961 40.664 164.236 40.664C163.766 40.664 163.254 40.76 162.7 40.952C162.145 41.1227 161.58 41.432 161.004 41.88V53.016C161.004 53.848 161.388 54.3813 162.156 54.616L162.411 54.68V55H154.924ZM179.314 55.48C177.948 55.48 176.882 55.1387 176.114 54.456C175.367 53.7733 174.994 52.6853 174.994 51.192V40.248H172.786V39.928L173.554 39.8C174.215 39.6507 174.78 39.4373 175.25 39.16C175.74 38.8827 176.22 38.5093 176.69 38.04L179.314 35.128H179.634L179.538 39.608H183.122V40.248H179.506V51.768C179.506 52.5147 179.666 53.08 179.986 53.464C180.327 53.848 180.754 54.04 181.266 54.04C181.714 54.04 182.108 53.9333 182.45 53.72C182.791 53.4853 183.132 53.176 183.474 52.792L183.794 53.112C183.367 53.8373 182.78 54.4133 182.034 54.84C181.287 55.2667 180.38 55.48 179.314 55.48ZM190.52 55.48C189.474 55.48 188.536 55.352 187.704 55.096C186.872 54.8613 186.104 54.5627 185.4 54.2L185.432 50.392H185.752L186.84 52.312C187.309 53.1653 187.821 53.8053 188.376 54.232C188.952 54.6373 189.677 54.84 190.552 54.84C191.576 54.84 192.397 54.616 193.016 54.168C193.656 53.6987 193.976 53.08 193.976 52.312C193.976 51.608 193.752 51.032 193.304 50.584C192.856 50.136 192.024 49.7307 190.808 49.368L189.464 48.952C188.162 48.568 187.138 47.9707 186.392 47.16C185.645 46.3493 185.272 45.3573 185.272 44.184C185.272 42.776 185.826 41.5813 186.936 40.6C188.045 39.6187 189.634 39.128 191.704 39.128C192.536 39.128 193.314 39.224 194.04 39.416C194.786 39.5867 195.501 39.8533 196.184 40.216L195.992 43.672H195.672L194.552 41.688C194.146 40.984 193.741 40.4933 193.336 40.216C192.952 39.9173 192.365 39.768 191.576 39.768C190.85 39.768 190.168 39.9707 189.528 40.376C188.888 40.7813 188.568 41.3573 188.568 42.104C188.568 42.8293 188.834 43.4053 189.368 43.832C189.922 44.2587 190.733 44.6533 191.8 45.016L193.24 45.432C194.776 45.9013 195.874 46.552 196.536 47.384C197.197 48.1947 197.528 49.176 197.528 50.328C197.528 51.8853 196.909 53.1333 195.672 54.072C194.456 55.0107 192.738 55.48 190.52 55.48Z" fill="#2B1F1F" fill-opacity="0.87"/>
<path d="M204 62.9637L192 56.0338L204 35.2444M204 62.9637L216 56.0338L204 35.2444M204 62.9637L204 35.2444" stroke="#C0B9DD" stroke-width="0.3" stroke-linecap="round" stroke-linejoin="round"/>
<path d="M204 58.7494L192 51.8197L204 31.0303M204 58.7494L216 51.8197L204 31.0303M204 58.7494L204 31.0303" stroke="#DED9E2" stroke-width="0.3" stroke-linecap="round" stroke-linejoin="round"/>
<path d="M204 54.2343L192 47.3046L204 26.5151M204 54.2343L216 47.3046L204 26.5151M204 54.2343L204 26.5151" stroke="#80A1D4" stroke-width="0.3" stroke-linecap="round" stroke-linejoin="round"/>
<path d="M204 22L192 42.7895L204 49.7193L204 22ZM204 22L216 42.7894L204 49.7191V22Z" stroke="#75C9C8" stroke-width="0.3" stroke-linecap="round" stroke-linejoin="round"/>
</svg>
