<svg width="234" height="104" viewBox="0 0 234 104" fill="none" xmlns="http://www.w3.org/2000/svg">
<rect width="234" height="104" fill="#0D1117"/>
<g opacity="0.6">
<rect x="9.5" y="71.5" width="31" height="18" stroke="#ECD975"/>
<rect x="41.5" y="14.5" width="31" height="18" stroke="#D48080"/>
<rect x="41.5" y="52.5" width="31" height="18" stroke="#DDDCDC"/>
<rect x="9.5" y="33.5" width="31" height="18" stroke="#80C5D4"/>
</g>
<path d="M13.992 69V68.68L15.304 68.36C16.1787 68.168 16.616 67.6347 16.616 66.76V48.52H13.896C13.1067 48.52 12.5413 48.7333 12.2 49.16C11.8587 49.5653 11.496 50.1307 11.112 50.856L9.96 53.096H9.64L9.8 47.88H28.264L28.392 53.096H28.072L26.92 50.856C26.5573 50.1307 26.2053 49.5653 25.864 49.16C25.5227 48.7333 24.9573 48.52 24.168 48.52H21.448V66.76C21.448 67.6347 21.8853 68.168 22.76 68.36L24.072 68.68V69H13.992ZM28.5463 69V68.68L29.0263 68.552C29.4529 68.424 29.7409 68.232 29.8903 67.976C30.0609 67.72 30.1463 67.3893 30.1463 66.984V56.968C30.1463 56.4987 30.0609 56.1573 29.8903 55.944C29.7409 55.7093 29.4529 55.5493 29.0263 55.464L28.5463 55.336V55.016L34.0503 53.16L34.3703 53.48L34.6583 56.232V56.488C34.9569 55.8907 35.3409 55.3467 35.8103 54.856C36.3009 54.344 36.8343 53.928 37.4103 53.608C38.0076 53.288 38.5943 53.128 39.1703 53.128C39.9809 53.128 40.5996 53.352 41.0263 53.8C41.4529 54.248 41.6663 54.8133 41.6663 55.496C41.6663 56.2213 41.4529 56.7867 41.0263 57.192C40.6209 57.576 40.1303 57.768 39.5543 57.768C38.6583 57.768 37.8689 57.32 37.1863 56.424L37.1223 56.36C36.9089 56.0613 36.6636 55.9013 36.3863 55.88C36.1089 55.8373 35.8529 55.9653 35.6183 56.264C35.4049 56.456 35.2236 56.6907 35.0743 56.968C34.9463 57.224 34.8183 57.5227 34.6903 57.864V66.792C34.6903 67.6453 35.0636 68.1787 35.8103 68.392L36.8343 68.68V69H28.5463ZM50.2033 53.128C51.5899 53.128 52.7739 53.416 53.7553 53.992C54.7366 54.5467 55.4833 55.3147 55.9953 56.296C56.5286 57.256 56.7953 58.3547 56.7953 59.592C56.7953 59.8267 56.7846 60.072 56.7633 60.328C56.7419 60.5627 56.6993 60.776 56.6353 60.968H47.0993C47.1206 63.272 47.5259 64.936 48.3153 65.96C49.1259 66.9627 50.3206 67.464 51.8993 67.464C52.9659 67.464 53.8299 67.2933 54.4913 66.952C55.1526 66.6107 55.7713 66.1093 56.3473 65.448L56.6673 65.736C56.0059 66.9093 55.1206 67.8267 54.0113 68.488C52.9233 69.1493 51.6113 69.48 50.0753 69.48C48.5606 69.48 47.2166 69.16 46.0433 68.52C44.8699 67.8587 43.9526 66.92 43.2913 65.704C42.6299 64.488 42.2993 63.0373 42.2993 61.352C42.2993 59.6027 42.6833 58.12 43.4513 56.904C44.2193 55.6667 45.2006 54.728 46.3953 54.088C47.6113 53.448 48.8806 53.128 50.2033 53.128ZM50.1073 53.768C49.4886 53.768 48.9553 53.96 48.5073 54.344C48.0806 54.7067 47.7393 55.368 47.4833 56.328C47.2486 57.2667 47.1206 58.6 47.0993 60.328H52.5713C52.7846 58.0027 52.6993 56.328 52.3153 55.304C51.9313 54.28 51.1953 53.768 50.1073 53.768ZM66.422 53.128C67.8087 53.128 68.9927 53.416 69.974 53.992C70.9553 54.5467 71.702 55.3147 72.214 56.296C72.7473 57.256 73.014 58.3547 73.014 59.592C73.014 59.8267 73.0033 60.072 72.982 60.328C72.9607 60.5627 72.918 60.776 72.854 60.968H63.318C63.3393 63.272 63.7447 64.936 64.534 65.96C65.3447 66.9627 66.5393 67.464 68.118 67.464C69.1847 67.464 70.0487 67.2933 70.71 66.952C71.3713 66.6107 71.99 66.1093 72.566 65.448L72.886 65.736C72.2247 66.9093 71.3393 67.8267 70.23 68.488C69.142 69.1493 67.83 69.48 66.294 69.48C64.7793 69.48 63.4353 69.16 62.262 68.52C61.0887 67.8587 60.1713 66.92 59.51 65.704C58.8487 64.488 58.518 63.0373 58.518 61.352C58.518 59.6027 58.902 58.12 59.67 56.904C60.438 55.6667 61.4193 54.728 62.614 54.088C63.83 53.448 65.0993 53.128 66.422 53.128ZM66.326 53.768C65.7073 53.768 65.174 53.96 64.726 54.344C64.2993 54.7067 63.958 55.368 63.702 56.328C63.4673 57.2667 63.3393 58.6 63.318 60.328H68.79C69.0033 58.0027 68.918 56.328 68.534 55.304C68.15 54.28 67.414 53.768 66.326 53.768ZM77.1795 69V68.68L78.4915 68.36C79.3662 68.168 79.8035 67.6347 79.8035 66.76V48.52H77.0835C76.2942 48.52 75.7288 48.7333 75.3875 49.16C75.0462 49.5653 74.6835 50.1307 74.2995 50.856L73.1475 53.096H72.8275L72.9875 47.88H91.4515L91.5795 53.096H91.2595L90.1075 50.856C89.7448 50.1307 89.3928 49.5653 89.0515 49.16C88.7102 48.7333 88.1448 48.52 87.3555 48.52H84.6355V66.76C84.6355 67.6347 85.0728 68.168 85.9475 68.36L87.2595 68.68V69H77.1795ZM92.986 69V68.68L93.37 68.552C94.138 68.296 94.522 67.7627 94.522 66.952V49.864C94.522 49.416 94.4473 49.0853 94.298 48.872C94.1487 48.6587 93.8607 48.4987 93.434 48.392L92.954 48.264V47.944L98.586 46.568L99.098 46.856L98.97 51.368V55.368C99.7167 54.7493 100.517 54.2267 101.37 53.8C102.245 53.352 103.205 53.128 104.25 53.128C105.637 53.128 106.735 53.5227 107.546 54.312C108.378 55.1013 108.794 56.3173 108.794 57.96V66.984C108.794 67.4107 108.879 67.752 109.05 68.008C109.221 68.264 109.519 68.456 109.946 68.584L110.202 68.68V69H102.714V68.68L103.098 68.584C103.866 68.328 104.25 67.784 104.25 66.952V56.904C104.25 56.0507 104.101 55.464 103.802 55.144C103.525 54.824 103.023 54.664 102.298 54.664C101.829 54.664 101.317 54.76 100.762 54.952C100.207 55.1227 99.642 55.432 99.066 55.88V67.016C99.066 67.848 99.45 68.3813 100.218 68.616L100.474 68.68V69H92.986ZM119.549 69.48C117.927 69.48 116.519 69.1493 115.325 68.488C114.13 67.8053 113.202 66.8453 112.541 65.608C111.901 64.3707 111.581 62.92 111.581 61.256C111.581 59.592 111.922 58.152 112.605 56.936C113.309 55.72 114.258 54.7813 115.453 54.12C116.669 53.4587 118.034 53.128 119.549 53.128C121.063 53.128 122.418 53.4587 123.613 54.12C124.807 54.76 125.746 55.688 126.429 56.904C127.133 58.12 127.485 59.5707 127.485 61.256C127.485 62.9413 127.154 64.4027 126.493 65.64C125.853 66.856 124.935 67.8053 123.741 68.488C122.567 69.1493 121.17 69.48 119.549 69.48ZM119.549 68.84C120.295 68.84 120.893 68.6267 121.341 68.2C121.789 67.7733 122.109 67.016 122.301 65.928C122.514 64.84 122.621 63.304 122.621 61.32C122.621 59.3147 122.514 57.768 122.301 56.68C122.109 55.592 121.789 54.8347 121.341 54.408C120.893 53.9813 120.295 53.768 119.549 53.768C118.802 53.768 118.194 53.9813 117.725 54.408C117.277 54.8347 116.946 55.592 116.733 56.68C116.541 57.768 116.445 59.3147 116.445 61.32C116.445 63.304 116.541 64.84 116.733 65.928C116.946 67.016 117.277 67.7733 117.725 68.2C118.194 68.6267 118.802 68.84 119.549 68.84ZM134.557 69.48C133.725 69.48 132.957 69.32 132.253 69C131.57 68.68 131.026 68.168 130.621 67.464C130.237 66.7387 130.056 65.7893 130.077 64.616L130.173 56.392C130.173 55.9013 130.088 55.5493 129.917 55.336C129.746 55.1227 129.48 54.9733 129.117 54.888L128.733 54.76V54.44L134.461 53.32L134.781 53.64L134.621 58.184V65.896C134.621 66.5787 134.813 67.08 135.197 67.4C135.602 67.72 136.104 67.88 136.701 67.88C137.298 67.88 137.832 67.7947 138.301 67.624C138.77 67.4533 139.24 67.1973 139.709 66.856L139.837 56.424C139.837 55.9333 139.762 55.592 139.613 55.4C139.464 55.1867 139.186 55.0373 138.781 54.952L138.461 54.856V54.536L144.061 53.32L144.381 53.64L144.285 58.184V66.856C144.285 67.3253 144.349 67.688 144.477 67.944C144.605 68.2 144.882 68.4133 145.309 68.584L145.629 68.68V69L140.029 69.32L139.741 67.432C139.037 68.008 138.269 68.4987 137.437 68.904C136.626 69.288 135.666 69.48 134.557 69.48ZM153.929 63.464C152.457 63.464 151.209 63.2187 150.185 62.728V63.816C150.185 64.4773 150.515 64.872 151.177 65L157.193 66.12C158.195 66.312 159.102 66.568 159.913 66.888C160.723 67.1867 161.374 67.624 161.865 68.2C162.355 68.7547 162.601 69.5227 162.601 70.504C162.601 71.5493 162.259 72.5093 161.577 73.384C160.894 74.28 159.881 74.9947 158.537 75.528C157.214 76.0827 155.561 76.36 153.577 76.36C151.87 76.36 150.515 76.1787 149.513 75.816C148.51 75.4747 147.795 75.0267 147.368 74.472C146.963 73.9173 146.761 73.3307 146.761 72.712C146.761 71.944 147.017 71.1653 147.529 70.376C148.062 69.608 148.713 68.9893 149.481 68.52C148.819 68.264 148.339 67.9333 148.041 67.528C147.742 67.1227 147.593 66.6853 147.593 66.216C147.593 65.7893 147.699 65.3947 147.913 65.032C148.147 64.648 148.425 64.264 148.745 63.88L149.801 62.536C148.243 61.64 147.465 60.232 147.465 58.312C147.465 56.776 148.009 55.528 149.097 54.568C150.206 53.608 151.827 53.128 153.961 53.128C155.049 53.128 155.998 53.256 156.809 53.512C157.641 53.768 158.323 54.1307 158.857 54.6C159.539 54.4933 160.179 54.3227 160.777 54.088C161.395 53.832 161.95 53.4907 162.441 53.064L162.889 53.384V55.016H159.273C160.041 55.8693 160.425 56.968 160.425 58.312C160.425 59.8053 159.87 61.0427 158.761 62.024C157.673 62.984 156.062 63.464 153.929 63.464ZM153.897 62.824C154.75 62.824 155.369 62.472 155.753 61.768C156.158 61.064 156.361 59.8907 156.361 58.248C156.361 56.6053 156.158 55.4533 155.753 54.792C155.369 54.1093 154.771 53.768 153.961 53.768C153.171 53.768 152.574 54.12 152.169 54.824C151.763 55.5067 151.561 56.6693 151.561 58.312C151.561 59.9547 151.742 61.1173 152.105 61.8C152.489 62.4827 153.086 62.824 153.897 62.824ZM149.129 71.688C149.129 72.9467 149.513 73.896 150.281 74.536C151.07 75.176 152.307 75.496 153.993 75.496C155.763 75.496 157.097 75.208 157.993 74.632C158.889 74.056 159.337 73.2453 159.337 72.2C159.337 71.6027 159.113 71.1227 158.665 70.76C158.238 70.3973 157.502 70.12 156.457 69.928L150.665 68.84C150.494 68.7973 150.323 68.7547 150.153 68.712C149.854 69.1387 149.609 69.6187 149.417 70.152C149.225 70.7067 149.129 71.2187 149.129 71.688ZM163.924 69V68.68L164.308 68.552C165.076 68.296 165.46 67.7627 165.46 66.952V49.864C165.46 49.416 165.385 49.0853 165.236 48.872C165.086 48.6587 164.798 48.4987 164.372 48.392L163.892 48.264V47.944L169.524 46.568L170.036 46.856L169.908 51.368V55.368C170.654 54.7493 171.454 54.2267 172.308 53.8C173.182 53.352 174.142 53.128 175.188 53.128C176.574 53.128 177.673 53.5227 178.484 54.312C179.316 55.1013 179.732 56.3173 179.732 57.96V66.984C179.732 67.4107 179.817 67.752 179.988 68.008C180.158 68.264 180.457 68.456 180.884 68.584L181.14 68.68V69H173.652V68.68L174.036 68.584C174.804 68.328 175.188 67.784 175.188 66.952V56.904C175.188 56.0507 175.038 55.464 174.74 55.144C174.462 54.824 173.961 54.664 173.236 54.664C172.766 54.664 172.254 54.76 171.7 54.952C171.145 55.1227 170.58 55.432 170.004 55.88V67.016C170.004 67.848 170.388 68.3813 171.156 68.616L171.411 68.68V69H163.924ZM188.314 69.48C186.948 69.48 185.882 69.1387 185.114 68.456C184.367 67.7733 183.994 66.6853 183.994 65.192V54.248H181.786V53.928L182.554 53.8C183.215 53.6507 183.78 53.4373 184.25 53.16C184.74 52.8827 185.22 52.5093 185.69 52.04L188.314 49.128H188.634L188.538 53.608H192.122V54.248H188.506V65.768C188.506 66.5147 188.666 67.08 188.986 67.464C189.327 67.848 189.754 68.04 190.266 68.04C190.714 68.04 191.108 67.9333 191.45 67.72C191.791 67.4853 192.132 67.176 192.474 66.792L192.794 67.112C192.367 67.8373 191.78 68.4133 191.034 68.84C190.287 69.2667 189.38 69.48 188.314 69.48ZM199.52 69.48C198.474 69.48 197.536 69.352 196.704 69.096C195.872 68.8613 195.104 68.5627 194.4 68.2L194.432 64.392H194.752L195.84 66.312C196.309 67.1653 196.821 67.8053 197.376 68.232C197.952 68.6373 198.677 68.84 199.552 68.84C200.576 68.84 201.397 68.616 202.016 68.168C202.656 67.6987 202.976 67.08 202.976 66.312C202.976 65.608 202.752 65.032 202.304 64.584C201.856 64.136 201.024 63.7307 199.808 63.368L198.464 62.952C197.162 62.568 196.138 61.9707 195.392 61.16C194.645 60.3493 194.272 59.3573 194.272 58.184C194.272 56.776 194.826 55.5813 195.936 54.6C197.045 53.6187 198.634 53.128 200.704 53.128C201.536 53.128 202.314 53.224 203.04 53.416C203.786 53.5867 204.501 53.8533 205.184 54.216L204.992 57.672H204.672L203.552 55.688C203.146 54.984 202.741 54.4933 202.336 54.216C201.952 53.9173 201.365 53.768 200.576 53.768C199.85 53.768 199.168 53.9707 198.528 54.376C197.888 54.7813 197.568 55.3573 197.568 56.104C197.568 56.8293 197.834 57.4053 198.368 57.832C198.922 58.2587 199.733 58.6533 200.8 59.016L202.24 59.432C203.776 59.9013 204.874 60.552 205.536 61.384C206.197 62.1947 206.528 63.176 206.528 64.328C206.528 65.8853 205.909 67.1333 204.672 68.072C203.456 69.0107 201.738 69.48 199.52 69.48Z" fill="white" fill-opacity="0.87"/>
<path d="M213 76.9637L201 70.0338L213 49.2444M213 76.9637L225 70.0338L213 49.2444M213 76.9637L213 49.2444" stroke="#C0B9DD" stroke-width="0.3" stroke-linecap="round" stroke-linejoin="round"/>
<path d="M213 72.7494L201 65.8197L213 45.0303M213 72.7494L225 65.8197L213 45.0303M213 72.7494L213 45.0303" stroke="#DED9E2" stroke-width="0.3" stroke-linecap="round" stroke-linejoin="round"/>
<path d="M213 68.2343L201 61.3046L213 40.5151M213 68.2343L225 61.3046L213 40.5151M213 68.2343L213 40.5151" stroke="#80A1D4" stroke-width="0.3" stroke-linecap="round" stroke-linejoin="round"/>
<path d="M213 36L201 56.7895L213 63.7193L213 36ZM213 36L225 56.7894L213 63.7191V36Z" stroke="#75C9C8" stroke-width="0.3" stroke-linecap="round" stroke-linejoin="round"/>
</svg>
